<?xml version="1.0" encoding="UTF-8"?>
<!DOCTYPE svg PUBLIC "-//W3C//DTD SVG 1.1//EN" "http://www.w3.org/Graphics/SVG/1.1/DTD/svg11.dtd">
<!-- Creator: CorelDRAW X7 -->
<svg xmlns="http://www.w3.org/2000/svg" xml:space="preserve" width="254mm" height="254mm" version="1.1" style="shape-rendering:geometricPrecision; text-rendering:geometricPrecision; image-rendering:optimizeQuality; fill-rule:evenodd; clip-rule:evenodd"
viewBox="0 0 25400 25400"
 xmlns:xlink="http://www.w3.org/1999/xlink">
 <defs>
  <style type="text/css">
   <![CDATA[
    .fil5 {fill:#FEFEFE}
    .fil0 {fill:#1478FA}
    .fil1 {fill:#20B7D2}
    .fil3 {fill:url(#id0)}
    .fil2 {fill:url(#id1)}
    .fil4 {fill:url(#id2)}
    .fil6 {fill:url(#id3)}
   ]]>
  </style>
  <linearGradient id="id0" gradientUnits="userSpaceOnUse" x1="15087" y1="12593.8" x2="17593.1" y2="12593.8">
   <stop offset="0" style="stop-opacity:1; stop-color:#084F99"/>
   <stop offset="0.588235" style="stop-opacity:1; stop-color:#0E64CA"/>
   <stop offset="1" style="stop-opacity:1; stop-color:#1479FB"/>
  </linearGradient>
  <linearGradient id="id1" gradientUnits="userSpaceOnUse" x1="14722" y1="13352.5" x2="17285" y2="13352.5">
   <stop offset="0" style="stop-opacity:1; stop-color:#FED401"/>
   <stop offset="1" style="stop-opacity:1; stop-color:#EF7F1A"/>
  </linearGradient>
  <linearGradient id="id2" gradientUnits="userSpaceOnUse" xlink:href="#id0" x1="5141.86" y1="12700" x2="9645.16" y2="12700">
  </linearGradient>
  <linearGradient id="id3" gradientUnits="userSpaceOnUse" xlink:href="#id1" x1="6258.72" y1="11491.9" x2="6832.94" y2="11491.9">
  </linearGradient>
 </defs>
 <g id="Layer_x0020_1">
  <metadata id="CorelCorpID_0Corel-Layer"/>
  <g id="_83898412544">
   <path class="fil0" d="M17904 15057c-65,0 -111,-14 -139,-44 -28,-29 -41,-73 -41,-132l0 -2920c123,-88 289,-161 495,-220 207,-58 415,-87 623,-87 944,0 1416,416 1416,1250 0,384 -103,687 -310,908 -207,221 -491,332 -852,332 -329,0 -581,-94 -757,-283l0 1020c0,62 -14,107 -42,135 -27,27 -75,41 -144,41l-249 0zm1045 -1357c232,0 404,-70 518,-210 114,-140 171,-342 171,-606 0,-283 -67,-484 -200,-603 -134,-119 -339,-178 -616,-178 -205,0 -366,31 -483,93l0 962c0,166 59,298 176,395 117,98 262,147 434,147z"/>
   <path class="fil0" d="M12826 14071c-55,0 -94,-11 -115,-32 -21,-21 -32,-58 -32,-110 0,-88 10,-153 30,-195 19,-42 65,-101 136,-176l1299 -1353 -1235 0c-65,0 -112,-13 -142,-39 -29,-26 -44,-70 -44,-132l0 -141c0,-62 15,-105 44,-130 30,-24 77,-36 142,-36l1880 0c52,0 88,10 107,32 20,21 30,57 30,109 0,88 -11,156 -32,203 -21,47 -64,105 -129,173l-1260 1353 1284 0c65,0 112,14 142,42 29,27 44,72 44,134l0 132c0,58 -15,101 -44,127 -30,26 -77,39 -142,39l-1963 0z"/>
   <path class="fil0" d="M11388 14144c-254,0 -484,-43 -689,-129 -205,-87 -368,-220 -490,-401 -123,-180 -184,-406 -184,-676 0,-420 113,-739 337,-957 225,-218 544,-327 957,-327 411,0 721,105 931,317 210,212 315,518 315,918 0,114 -52,171 -156,171l-1793 0c0,215 75,380 225,496 150,115 358,173 625,173 257,0 488,-59 693,-176 23,-13 41,-19 54,-19 23,0 41,14 54,44l117 210c10,19 15,37 15,53 0,23 -15,44 -44,64 -134,81 -278,141 -432,180 -155,40 -333,59 -535,59zm610 -1445c0,-202 -56,-360 -168,-474 -113,-114 -281,-171 -506,-171 -228,0 -403,59 -525,176 -122,117 -183,273 -183,469l1382 0z"/>
   <polygon class="fil1" points="15292,12404 15572,12980 14722,12867 "/>
   <path class="fil2" d="M17285 13795c-251,309 -634,506 -1064,506 -757,0 -1371,-614 -1371,-1372 0,-15 0,-30 1,-45l-129 -17 570 -463 280 576 -152 -20c16,429 369,772 801,772 250,0 473,-114 620,-293l444 356z"/>
   <path class="fil3" d="M16221 11558c758,0 1372,614 1372,1371 0,256 -70,496 -192,701l-448 -370c45,-101 71,-213 71,-331 0,-443 -359,-802 -803,-802 -253,0 -479,117 -626,300l-5 -8 -503 -261c247,-362 663,-600 1134,-600z"/>
   <g>
    <path class="fil4" d="M5142 11864l0 1672c0,266 142,491 329,643l1378 806c51,30 101,60 152,86 190,101 389,122 602,73 73,-17 112,-36 172,-67 353,-181 857,-505 1233,-711 335,-183 637,-398 637,-830l0 -1672c0,-153 -49,-275 -102,-375 -60,-116 -127,-186 -227,-268l-1530 -892c-56,-30 -100,-51 -170,-69 -151,-38 -282,-38 -432,-4 -73,17 -112,36 -172,67 -408,235 -820,486 -1233,711 -95,52 -230,124 -308,187 -188,153 -329,376 -329,643z"/>
    <path class="fil5" d="M6598 14112c-54,0 -93,-12 -116,-37 -23,-24 -34,-61 -34,-109l0 -2117c31,9 64,13 98,13 204,0 370,-165 370,-370 0,-50 -10,-97 -27,-140l882 0c282,0 495,67 640,202 144,136 217,318 217,548 0,130 -33,247 -98,350 -65,102 -155,178 -272,227 301,95 451,306 451,633 0,152 -35,288 -104,408 -69,121 -172,216 -310,286 -138,71 -309,106 -512,106l-1185 0zm1100 -1608c133,0 235,-33 307,-101 71,-68 107,-163 107,-284 0,-133 -33,-228 -99,-286 -67,-59 -173,-88 -319,-88l-727 0 0 759 731 0zm61 1214c149,0 258,-38 329,-116 70,-77 105,-176 105,-298 0,-141 -42,-247 -128,-319 -85,-71 -203,-107 -355,-107l-743 0 0 840 792 0z"/>
    <path class="fil6" d="M6546 11205c158,0 287,128 287,287 0,158 -129,287 -287,287 -159,0 -287,-129 -287,-287 0,-159 128,-287 287,-287z"/>
   </g>
  </g>
 </g>
</svg>
